# xmcd
#
# Track frame offsets: 
#        225
#        10363
#        23393
#        37633
#        50203
#        67005
#        79436
#        92478
#        105062
#        115264
#
# Disc length: 1734 seconds
#
# Revision: 0
# Processed by: cddbd v1.5.1PL0 Copyright (c) Steve Scherf et al.
# Submitted via: ExactAudioCopy v0.95a5
#
DISCID=6f06c30a
DTITLE=Claude Gray - Best of the Best
DYEAR=2001
DGENRE=Classic Country
TTITLE0=I'll Just Have A Cup Of Coffee (Then I'll Go)
TTITLE1=I Never Had The One I Wanted
TTITLE2=Family Bible
TTITLE3=How Fast Them Grucks Can Go
TTITLE4=Old Flames
TTITLE5=If I Ever Need A Lady
TTITLE6=Sweet Caroline
TTITLE7=A Wound Time Can't Erase
TTITLE8=I Still Miss Someone
TTITLE9=Unclouded Day
EXTD=
EXTT0=
EXTT1=
EXTT2=
EXTT3=
EXTT4=
EXTT5=
EXTT6=
EXTT7=
EXTT8=
EXTT9=
PLAYORDER=
